<svg xmlns="http://www.w3.org/2000/svg" xmlns:xlink="http://www.w3.org/1999/xlink" width="1080" zoomAndPan="magnify" viewBox="0 0 810 1439.999935" height="1920" preserveAspectRatio="xMidYMid meet" version="1.0"><defs><clipPath id="e46d1d66c8"><path d="M 23.816406 788.980469 L 280.683594 788.980469 L 280.683594 959.746094 L 23.816406 959.746094 Z M 23.816406 788.980469 " clip-rule="nonzero"/></clipPath><clipPath id="e9c18f8e60"><path d="M 185 479.695312 L 666 479.695312 L 666 959.652344 L 185 959.652344 Z M 185 479.695312 " clip-rule="nonzero"/></clipPath><clipPath id="8bdfd4d999"><path d="M 185.394531 719.683594 C 185.394531 711.832031 185.78125 703.996094 186.550781 696.175781 C 187.320312 688.359375 188.472656 680.601562 190.003906 672.894531 C 191.539062 665.191406 193.445312 657.582031 195.726562 650.066406 C 198.007812 642.546875 200.652344 635.160156 203.660156 627.902344 C 206.667969 620.648438 210.023438 613.554688 213.726562 606.628906 C 217.433594 599.699219 221.46875 592.972656 225.832031 586.441406 C 230.199219 579.910156 234.875 573.605469 239.859375 567.535156 C 244.84375 561.464844 250.117188 555.648438 255.671875 550.097656 C 261.230469 544.542969 267.046875 539.273438 273.121094 534.289062 C 279.195312 529.308594 285.5 524.632812 292.035156 520.269531 C 298.566406 515.90625 305.300781 511.871094 312.230469 508.167969 C 319.160156 504.464844 326.257812 501.113281 333.515625 498.105469 C 340.777344 495.101562 348.167969 492.457031 355.6875 490.175781 C 363.207031 487.898438 370.820312 485.992188 378.527344 484.457031 C 386.234375 482.925781 394 481.773438 401.820312 481.003906 C 409.640625 480.234375 417.480469 479.851562 425.339844 479.851562 C 433.199219 479.851562 441.039062 480.234375 448.859375 481.003906 C 456.679688 481.773438 464.441406 482.925781 472.148438 484.457031 C 479.859375 485.992188 487.472656 487.898438 494.992188 490.175781 C 502.511719 492.457031 509.902344 495.101562 517.164062 498.105469 C 524.421875 501.113281 531.519531 504.464844 538.449219 508.167969 C 545.378906 511.871094 552.113281 515.90625 558.644531 520.269531 C 565.179688 524.632812 571.484375 529.308594 577.558594 534.289062 C 583.632812 539.273438 589.449219 544.542969 595.007812 550.097656 C 600.5625 555.648438 605.832031 561.464844 610.820312 567.535156 C 615.804688 573.605469 620.480469 579.910156 624.847656 586.441406 C 629.210938 592.972656 633.246094 599.699219 636.953125 606.628906 C 640.65625 613.554688 644.011719 620.648438 647.019531 627.902344 C 650.027344 635.160156 652.671875 642.546875 654.953125 650.066406 C 657.234375 657.582031 659.140625 665.191406 660.671875 672.894531 C 662.207031 680.601562 663.359375 688.359375 664.128906 696.175781 C 664.898438 703.996094 665.285156 711.832031 665.285156 719.683594 C 665.285156 727.539062 664.898438 735.375 664.128906 743.195312 C 663.359375 751.011719 662.207031 758.769531 660.671875 766.476562 C 659.140625 774.179688 657.234375 781.789062 654.953125 789.304688 C 652.671875 796.824219 650.027344 804.210938 647.019531 811.464844 C 644.011719 818.722656 640.65625 825.816406 636.953125 832.742188 C 633.246094 839.671875 629.210938 846.398438 624.847656 852.929688 C 620.480469 859.460938 615.804688 865.761719 610.820312 871.835938 C 605.832031 877.90625 600.5625 883.71875 595.007812 889.273438 C 589.449219 894.828125 583.632812 900.097656 577.558594 905.082031 C 571.484375 910.0625 565.179688 914.738281 558.644531 919.101562 C 552.113281 923.464844 545.378906 927.5 538.449219 931.203125 C 531.519531 934.90625 524.421875 938.257812 517.164062 941.265625 C 509.902344 944.269531 502.511719 946.914062 494.992188 949.195312 C 487.472656 951.472656 479.859375 953.378906 472.148438 954.914062 C 464.441406 956.445312 456.679688 957.597656 448.859375 958.367188 C 441.039062 959.136719 433.199219 959.519531 425.339844 959.519531 C 417.480469 959.519531 409.640625 959.136719 401.820312 958.367188 C 394 957.597656 386.234375 956.445312 378.527344 954.914062 C 370.820312 953.378906 363.207031 951.472656 355.6875 949.195312 C 348.167969 946.914062 340.777344 944.269531 333.515625 941.265625 C 326.257812 938.257812 319.160156 934.90625 312.230469 931.203125 C 305.300781 927.5 298.566406 923.464844 292.035156 919.101562 C 285.5 914.738281 279.195312 910.0625 273.121094 905.082031 C 267.046875 900.097656 261.230469 894.828125 255.671875 889.273438 C 250.117188 883.71875 244.84375 877.90625 239.859375 871.835938 C 234.875 865.761719 230.199219 859.460938 225.832031 852.929688 C 221.46875 846.398438 217.433594 839.671875 213.726562 832.742188 C 210.023438 825.816406 206.667969 818.722656 203.660156 811.464844 C 200.652344 804.210938 198.007812 796.824219 195.726562 789.304688 C 193.445312 781.789062 191.539062 774.179688 190.003906 766.476562 C 188.472656 758.769531 187.320312 751.011719 186.550781 743.195312 C 185.78125 735.375 185.394531 727.539062 185.394531 719.683594 Z M 185.394531 719.683594 " clip-rule="nonzero"/></clipPath><clipPath id="c64dd31db0"><path d="M 185 526 L 666 526 L 666 910 L 185 910 Z M 185 526 " clip-rule="nonzero"/></clipPath><clipPath id="76b95fcf30"><path d="M 185.394531 719.683594 C 185.394531 711.832031 185.78125 703.996094 186.550781 696.175781 C 187.320312 688.359375 188.472656 680.601562 190.003906 672.894531 C 191.539062 665.191406 193.445312 657.582031 195.726562 650.066406 C 198.007812 642.546875 200.652344 635.160156 203.660156 627.902344 C 206.667969 620.648438 210.023438 613.554688 213.726562 606.628906 C 217.433594 599.699219 221.46875 592.972656 225.832031 586.441406 C 230.199219 579.910156 234.875 573.605469 239.859375 567.535156 C 244.84375 561.464844 250.117188 555.648438 255.671875 550.097656 C 261.230469 544.542969 267.046875 539.273438 273.121094 534.289062 C 279.195312 529.308594 285.5 524.632812 292.035156 520.269531 C 298.566406 515.90625 305.300781 511.871094 312.230469 508.167969 C 319.160156 504.464844 326.257812 501.113281 333.515625 498.105469 C 340.777344 495.101562 348.167969 492.457031 355.6875 490.175781 C 363.207031 487.898438 370.820312 485.992188 378.527344 484.457031 C 386.234375 482.925781 394 481.773438 401.820312 481.003906 C 409.640625 480.234375 417.480469 479.851562 425.339844 479.851562 C 433.199219 479.851562 441.039062 480.234375 448.859375 481.003906 C 456.679688 481.773438 464.441406 482.925781 472.148438 484.457031 C 479.859375 485.992188 487.472656 487.898438 494.992188 490.175781 C 502.511719 492.457031 509.902344 495.101562 517.164062 498.105469 C 524.421875 501.113281 531.519531 504.464844 538.449219 508.167969 C 545.378906 511.871094 552.113281 515.90625 558.644531 520.269531 C 565.179688 524.632812 571.484375 529.308594 577.558594 534.289062 C 583.632812 539.273438 589.449219 544.542969 595.007812 550.097656 C 600.5625 555.648438 605.832031 561.464844 610.820312 567.535156 C 615.804688 573.605469 620.480469 579.910156 624.847656 586.441406 C 629.210938 592.972656 633.246094 599.699219 636.953125 606.628906 C 640.65625 613.554688 644.011719 620.648438 647.019531 627.902344 C 650.027344 635.160156 652.671875 642.546875 654.953125 650.066406 C 657.234375 657.582031 659.140625 665.191406 660.671875 672.894531 C 662.207031 680.601562 663.359375 688.359375 664.128906 696.175781 C 664.898438 703.996094 665.285156 711.832031 665.285156 719.683594 C 665.285156 727.539062 664.898438 735.375 664.128906 743.195312 C 663.359375 751.011719 662.207031 758.769531 660.671875 766.476562 C 659.140625 774.179688 657.234375 781.789062 654.953125 789.304688 C 652.671875 796.824219 650.027344 804.210938 647.019531 811.464844 C 644.011719 818.722656 640.65625 825.816406 636.953125 832.742188 C 633.246094 839.671875 629.210938 846.398438 624.847656 852.929688 C 620.480469 859.460938 615.804688 865.761719 610.820312 871.835938 C 605.832031 877.90625 600.5625 883.71875 595.007812 889.273438 C 589.449219 894.828125 583.632812 900.097656 577.558594 905.082031 C 571.484375 910.0625 565.179688 914.738281 558.644531 919.101562 C 552.113281 923.464844 545.378906 927.5 538.449219 931.203125 C 531.519531 934.90625 524.421875 938.257812 517.164062 941.265625 C 509.902344 944.269531 502.511719 946.914062 494.992188 949.195312 C 487.472656 951.472656 479.859375 953.378906 472.148438 954.914062 C 464.441406 956.445312 456.679688 957.597656 448.859375 958.367188 C 441.039062 959.136719 433.199219 959.519531 425.339844 959.519531 C 417.480469 959.519531 409.640625 959.136719 401.820312 958.367188 C 394 957.597656 386.234375 956.445312 378.527344 954.914062 C 370.820312 953.378906 363.207031 951.472656 355.6875 949.195312 C 348.167969 946.914062 340.777344 944.269531 333.515625 941.265625 C 326.257812 938.257812 319.160156 934.90625 312.230469 931.203125 C 305.300781 927.5 298.566406 923.464844 292.035156 919.101562 C 285.5 914.738281 279.195312 910.0625 273.121094 905.082031 C 267.046875 900.097656 261.230469 894.828125 255.671875 889.273438 C 250.117188 883.71875 244.84375 877.90625 239.859375 871.835938 C 234.875 865.761719 230.199219 859.460938 225.832031 852.929688 C 221.46875 846.398438 217.433594 839.671875 213.726562 832.742188 C 210.023438 825.816406 206.667969 818.722656 203.660156 811.464844 C 200.652344 804.210938 198.007812 796.824219 195.726562 789.304688 C 193.445312 781.789062 191.539062 774.179688 190.003906 766.476562 C 188.472656 758.769531 187.320312 751.011719 186.550781 743.195312 C 185.78125 735.375 185.394531 727.539062 185.394531 719.683594 Z M 185.394531 719.683594 " clip-rule="nonzero"/></clipPath><clipPath id="f2d98d8d1f"><path d="M 185 515 L 666 515 L 666 899 L 185 899 Z M 185 515 " clip-rule="nonzero"/></clipPath><clipPath id="26360be238"><path d="M 185.394531 719.683594 C 185.394531 711.832031 185.78125 703.996094 186.550781 696.175781 C 187.320312 688.359375 188.472656 680.601562 190.003906 672.894531 C 191.539062 665.191406 193.445312 657.582031 195.726562 650.066406 C 198.007812 642.546875 200.652344 635.160156 203.660156 627.902344 C 206.667969 620.648438 210.023438 613.554688 213.726562 606.628906 C 217.433594 599.699219 221.46875 592.972656 225.832031 586.441406 C 230.199219 579.910156 234.875 573.605469 239.859375 567.535156 C 244.84375 561.464844 250.117188 555.648438 255.671875 550.097656 C 261.230469 544.542969 267.046875 539.273438 273.121094 534.289062 C 279.195312 529.308594 285.5 524.632812 292.035156 520.269531 C 298.566406 515.90625 305.300781 511.871094 312.230469 508.167969 C 319.160156 504.464844 326.257812 501.113281 333.515625 498.105469 C 340.777344 495.101562 348.167969 492.457031 355.6875 490.175781 C 363.207031 487.898438 370.820312 485.992188 378.527344 484.457031 C 386.234375 482.925781 394 481.773438 401.820312 481.003906 C 409.640625 480.234375 417.480469 479.851562 425.339844 479.851562 C 433.199219 479.851562 441.039062 480.234375 448.859375 481.003906 C 456.679688 481.773438 464.441406 482.925781 472.148438 484.457031 C 479.859375 485.992188 487.472656 487.898438 494.992188 490.175781 C 502.511719 492.457031 509.902344 495.101562 517.164062 498.105469 C 524.421875 501.113281 531.519531 504.464844 538.449219 508.167969 C 545.378906 511.871094 552.113281 515.90625 558.644531 520.269531 C 565.179688 524.632812 571.484375 529.308594 577.558594 534.289062 C 583.632812 539.273438 589.449219 544.542969 595.007812 550.097656 C 600.5625 555.648438 605.832031 561.464844 610.820312 567.535156 C 615.804688 573.605469 620.480469 579.910156 624.847656 586.441406 C 629.210938 592.972656 633.246094 599.699219 636.953125 606.628906 C 640.65625 613.554688 644.011719 620.648438 647.019531 627.902344 C 650.027344 635.160156 652.671875 642.546875 654.953125 650.066406 C 657.234375 657.582031 659.140625 665.191406 660.671875 672.894531 C 662.207031 680.601562 663.359375 688.359375 664.128906 696.175781 C 664.898438 703.996094 665.285156 711.832031 665.285156 719.683594 C 665.285156 727.539062 664.898438 735.375 664.128906 743.195312 C 663.359375 751.011719 662.207031 758.769531 660.671875 766.476562 C 659.140625 774.179688 657.234375 781.789062 654.953125 789.304688 C 652.671875 796.824219 650.027344 804.210938 647.019531 811.464844 C 644.011719 818.722656 640.65625 825.816406 636.953125 832.742188 C 633.246094 839.671875 629.210938 846.398438 624.847656 852.929688 C 620.480469 859.460938 615.804688 865.761719 610.820312 871.835938 C 605.832031 877.90625 600.5625 883.71875 595.007812 889.273438 C 589.449219 894.828125 583.632812 900.097656 577.558594 905.082031 C 571.484375 910.0625 565.179688 914.738281 558.644531 919.101562 C 552.113281 923.464844 545.378906 927.5 538.449219 931.203125 C 531.519531 934.90625 524.421875 938.257812 517.164062 941.265625 C 509.902344 944.269531 502.511719 946.914062 494.992188 949.195312 C 487.472656 951.472656 479.859375 953.378906 472.148438 954.914062 C 464.441406 956.445312 456.679688 957.597656 448.859375 958.367188 C 441.039062 959.136719 433.199219 959.519531 425.339844 959.519531 C 417.480469 959.519531 409.640625 959.136719 401.820312 958.367188 C 394 957.597656 386.234375 956.445312 378.527344 954.914062 C 370.820312 953.378906 363.207031 951.472656 355.6875 949.195312 C 348.167969 946.914062 340.777344 944.269531 333.515625 941.265625 C 326.257812 938.257812 319.160156 934.90625 312.230469 931.203125 C 305.300781 927.5 298.566406 923.464844 292.035156 919.101562 C 285.5 914.738281 279.195312 910.0625 273.121094 905.082031 C 267.046875 900.097656 261.230469 894.828125 255.671875 889.273438 C 250.117188 883.71875 244.84375 877.90625 239.859375 871.835938 C 234.875 865.761719 230.199219 859.460938 225.832031 852.929688 C 221.46875 846.398438 217.433594 839.671875 213.726562 832.742188 C 210.023438 825.816406 206.667969 818.722656 203.660156 811.464844 C 200.652344 804.210938 198.007812 796.824219 195.726562 789.304688 C 193.445312 781.789062 191.539062 774.179688 190.003906 766.476562 C 188.472656 758.769531 187.320312 751.011719 186.550781 743.195312 C 185.78125 735.375 185.394531 727.539062 185.394531 719.683594 Z M 185.394531 719.683594 " clip-rule="nonzero"/></clipPath><clipPath id="206cb96ea6"><path d="M 185 531 L 666 531 L 666 914 L 185 914 Z M 185 531 " clip-rule="nonzero"/></clipPath><clipPath id="23a614a95b"><path d="M 185.394531 719.683594 C 185.394531 711.832031 185.78125 703.996094 186.550781 696.175781 C 187.320312 688.359375 188.472656 680.601562 190.003906 672.894531 C 191.539062 665.191406 193.445312 657.582031 195.726562 650.066406 C 198.007812 642.546875 200.652344 635.160156 203.660156 627.902344 C 206.667969 620.648438 210.023438 613.554688 213.726562 606.628906 C 217.433594 599.699219 221.46875 592.972656 225.832031 586.441406 C 230.199219 579.910156 234.875 573.605469 239.859375 567.535156 C 244.84375 561.464844 250.117188 555.648438 255.671875 550.097656 C 261.230469 544.542969 267.046875 539.273438 273.121094 534.289062 C 279.195312 529.308594 285.5 524.632812 292.035156 520.269531 C 298.566406 515.90625 305.300781 511.871094 312.230469 508.167969 C 319.160156 504.464844 326.257812 501.113281 333.515625 498.105469 C 340.777344 495.101562 348.167969 492.457031 355.6875 490.175781 C 363.207031 487.898438 370.820312 485.992188 378.527344 484.457031 C 386.234375 482.925781 394 481.773438 401.820312 481.003906 C 409.640625 480.234375 417.480469 479.851562 425.339844 479.851562 C 433.199219 479.851562 441.039062 480.234375 448.859375 481.003906 C 456.679688 481.773438 464.441406 482.925781 472.148438 484.457031 C 479.859375 485.992188 487.472656 487.898438 494.992188 490.175781 C 502.511719 492.457031 509.902344 495.101562 517.164062 498.105469 C 524.421875 501.113281 531.519531 504.464844 538.449219 508.167969 C 545.378906 511.871094 552.113281 515.90625 558.644531 520.269531 C 565.179688 524.632812 571.484375 529.308594 577.558594 534.289062 C 583.632812 539.273438 589.449219 544.542969 595.007812 550.097656 C 600.5625 555.648438 605.832031 561.464844 610.820312 567.535156 C 615.804688 573.605469 620.480469 579.910156 624.847656 586.441406 C 629.210938 592.972656 633.246094 599.699219 636.953125 606.628906 C 640.65625 613.554688 644.011719 620.648438 647.019531 627.902344 C 650.027344 635.160156 652.671875 642.546875 654.953125 650.066406 C 657.234375 657.582031 659.140625 665.191406 660.671875 672.894531 C 662.207031 680.601562 663.359375 688.359375 664.128906 696.175781 C 664.898438 703.996094 665.285156 711.832031 665.285156 719.683594 C 665.285156 727.539062 664.898438 735.375 664.128906 743.195312 C 663.359375 751.011719 662.207031 758.769531 660.671875 766.476562 C 659.140625 774.179688 657.234375 781.789062 654.953125 789.304688 C 652.671875 796.824219 650.027344 804.210938 647.019531 811.464844 C 644.011719 818.722656 640.65625 825.816406 636.953125 832.742188 C 633.246094 839.671875 629.210938 846.398438 624.847656 852.929688 C 620.480469 859.460938 615.804688 865.761719 610.820312 871.835938 C 605.832031 877.90625 600.5625 883.71875 595.007812 889.273438 C 589.449219 894.828125 583.632812 900.097656 577.558594 905.082031 C 571.484375 910.0625 565.179688 914.738281 558.644531 919.101562 C 552.113281 923.464844 545.378906 927.5 538.449219 931.203125 C 531.519531 934.90625 524.421875 938.257812 517.164062 941.265625 C 509.902344 944.269531 502.511719 946.914062 494.992188 949.195312 C 487.472656 951.472656 479.859375 953.378906 472.148438 954.914062 C 464.441406 956.445312 456.679688 957.597656 448.859375 958.367188 C 441.039062 959.136719 433.199219 959.519531 425.339844 959.519531 C 417.480469 959.519531 409.640625 959.136719 401.820312 958.367188 C 394 957.597656 386.234375 956.445312 378.527344 954.914062 C 370.820312 953.378906 363.207031 951.472656 355.6875 949.195312 C 348.167969 946.914062 340.777344 944.269531 333.515625 941.265625 C 326.257812 938.257812 319.160156 934.90625 312.230469 931.203125 C 305.300781 927.5 298.566406 923.464844 292.035156 919.101562 C 285.5 914.738281 279.195312 910.0625 273.121094 905.082031 C 267.046875 900.097656 261.230469 894.828125 255.671875 889.273438 C 250.117188 883.71875 244.84375 877.90625 239.859375 871.835938 C 234.875 865.761719 230.199219 859.460938 225.832031 852.929688 C 221.46875 846.398438 217.433594 839.671875 213.726562 832.742188 C 210.023438 825.816406 206.667969 818.722656 203.660156 811.464844 C 200.652344 804.210938 198.007812 796.824219 195.726562 789.304688 C 193.445312 781.789062 191.539062 774.179688 190.003906 766.476562 C 188.472656 758.769531 187.320312 751.011719 186.550781 743.195312 C 185.78125 735.375 185.394531 727.539062 185.394531 719.683594 Z M 185.394531 719.683594 " clip-rule="nonzero"/></clipPath><clipPath id="1b069544e3"><path d="M 365 479.695312 L 480 479.695312 L 480 959.652344 L 365 959.652344 Z M 365 479.695312 " clip-rule="nonzero"/></clipPath><clipPath id="790a04feb0"><path d="M 185.394531 719.683594 C 185.394531 711.832031 185.78125 703.996094 186.550781 696.175781 C 187.320312 688.359375 188.472656 680.601562 190.003906 672.894531 C 191.539062 665.191406 193.445312 657.582031 195.726562 650.066406 C 198.007812 642.546875 200.652344 635.160156 203.660156 627.902344 C 206.667969 620.648438 210.023438 613.554688 213.726562 606.628906 C 217.433594 599.699219 221.46875 592.972656 225.832031 586.441406 C 230.199219 579.910156 234.875 573.605469 239.859375 567.535156 C 244.84375 561.464844 250.117188 555.648438 255.671875 550.097656 C 261.230469 544.542969 267.046875 539.273438 273.121094 534.289062 C 279.195312 529.308594 285.5 524.632812 292.035156 520.269531 C 298.566406 515.90625 305.300781 511.871094 312.230469 508.167969 C 319.160156 504.464844 326.257812 501.113281 333.515625 498.105469 C 340.777344 495.101562 348.167969 492.457031 355.6875 490.175781 C 363.207031 487.898438 370.820312 485.992188 378.527344 484.457031 C 386.234375 482.925781 394 481.773438 401.820312 481.003906 C 409.640625 480.234375 417.480469 479.851562 425.339844 479.851562 C 433.199219 479.851562 441.039062 480.234375 448.859375 481.003906 C 456.679688 481.773438 464.441406 482.925781 472.148438 484.457031 C 479.859375 485.992188 487.472656 487.898438 494.992188 490.175781 C 502.511719 492.457031 509.902344 495.101562 517.164062 498.105469 C 524.421875 501.113281 531.519531 504.464844 538.449219 508.167969 C 545.378906 511.871094 552.113281 515.90625 558.644531 520.269531 C 565.179688 524.632812 571.484375 529.308594 577.558594 534.289062 C 583.632812 539.273438 589.449219 544.542969 595.007812 550.097656 C 600.5625 555.648438 605.832031 561.464844 610.820312 567.535156 C 615.804688 573.605469 620.480469 579.910156 624.847656 586.441406 C 629.210938 592.972656 633.246094 599.699219 636.953125 606.628906 C 640.65625 613.554688 644.011719 620.648438 647.019531 627.902344 C 650.027344 635.160156 652.671875 642.546875 654.953125 650.066406 C 657.234375 657.582031 659.140625 665.191406 660.671875 672.894531 C 662.207031 680.601562 663.359375 688.359375 664.128906 696.175781 C 664.898438 703.996094 665.285156 711.832031 665.285156 719.683594 C 665.285156 727.539062 664.898438 735.375 664.128906 743.195312 C 663.359375 751.011719 662.207031 758.769531 660.671875 766.476562 C 659.140625 774.179688 657.234375 781.789062 654.953125 789.304688 C 652.671875 796.824219 650.027344 804.210938 647.019531 811.464844 C 644.011719 818.722656 640.65625 825.816406 636.953125 832.742188 C 633.246094 839.671875 629.210938 846.398438 624.847656 852.929688 C 620.480469 859.460938 615.804688 865.761719 610.820312 871.835938 C 605.832031 877.90625 600.5625 883.71875 595.007812 889.273438 C 589.449219 894.828125 583.632812 900.097656 577.558594 905.082031 C 571.484375 910.0625 565.179688 914.738281 558.644531 919.101562 C 552.113281 923.464844 545.378906 927.5 538.449219 931.203125 C 531.519531 934.90625 524.421875 938.257812 517.164062 941.265625 C 509.902344 944.269531 502.511719 946.914062 494.992188 949.195312 C 487.472656 951.472656 479.859375 953.378906 472.148438 954.914062 C 464.441406 956.445312 456.679688 957.597656 448.859375 958.367188 C 441.039062 959.136719 433.199219 959.519531 425.339844 959.519531 C 417.480469 959.519531 409.640625 959.136719 401.820312 958.367188 C 394 957.597656 386.234375 956.445312 378.527344 954.914062 C 370.820312 953.378906 363.207031 951.472656 355.6875 949.195312 C 348.167969 946.914062 340.777344 944.269531 333.515625 941.265625 C 326.257812 938.257812 319.160156 934.90625 312.230469 931.203125 C 305.300781 927.5 298.566406 923.464844 292.035156 919.101562 C 285.5 914.738281 279.195312 910.0625 273.121094 905.082031 C 267.046875 900.097656 261.230469 894.828125 255.671875 889.273438 C 250.117188 883.71875 244.84375 877.90625 239.859375 871.835938 C 234.875 865.761719 230.199219 859.460938 225.832031 852.929688 C 221.46875 846.398438 217.433594 839.671875 213.726562 832.742188 C 210.023438 825.816406 206.667969 818.722656 203.660156 811.464844 C 200.652344 804.210938 198.007812 796.824219 195.726562 789.304688 C 193.445312 781.789062 191.539062 774.179688 190.003906 766.476562 C 188.472656 758.769531 187.320312 751.011719 186.550781 743.195312 C 185.78125 735.375 185.394531 727.539062 185.394531 719.683594 Z M 185.394531 719.683594 " clip-rule="nonzero"/></clipPath><clipPath id="9cc650e34a"><path d="M 185 648 L 666 648 L 666 782 L 185 782 Z M 185 648 " clip-rule="nonzero"/></clipPath><clipPath id="c00830aec1"><path d="M 185.394531 719.683594 C 185.394531 711.832031 185.78125 703.996094 186.550781 696.175781 C 187.320312 688.359375 188.472656 680.601562 190.003906 672.894531 C 191.539062 665.191406 193.445312 657.582031 195.726562 650.066406 C 198.007812 642.546875 200.652344 635.160156 203.660156 627.902344 C 206.667969 620.648438 210.023438 613.554688 213.726562 606.628906 C 217.433594 599.699219 221.46875 592.972656 225.832031 586.441406 C 230.199219 579.910156 234.875 573.605469 239.859375 567.535156 C 244.84375 561.464844 250.117188 555.648438 255.671875 550.097656 C 261.230469 544.542969 267.046875 539.273438 273.121094 534.289062 C 279.195312 529.308594 285.5 524.632812 292.035156 520.269531 C 298.566406 515.90625 305.300781 511.871094 312.230469 508.167969 C 319.160156 504.464844 326.257812 501.113281 333.515625 498.105469 C 340.777344 495.101562 348.167969 492.457031 355.6875 490.175781 C 363.207031 487.898438 370.820312 485.992188 378.527344 484.457031 C 386.234375 482.925781 394 481.773438 401.820312 481.003906 C 409.640625 480.234375 417.480469 479.851562 425.339844 479.851562 C 433.199219 479.851562 441.039062 480.234375 448.859375 481.003906 C 456.679688 481.773438 464.441406 482.925781 472.148438 484.457031 C 479.859375 485.992188 487.472656 487.898438 494.992188 490.175781 C 502.511719 492.457031 509.902344 495.101562 517.164062 498.105469 C 524.421875 501.113281 531.519531 504.464844 538.449219 508.167969 C 545.378906 511.871094 552.113281 515.90625 558.644531 520.269531 C 565.179688 524.632812 571.484375 529.308594 577.558594 534.289062 C 583.632812 539.273438 589.449219 544.542969 595.007812 550.097656 C 600.5625 555.648438 605.832031 561.464844 610.820312 567.535156 C 615.804688 573.605469 620.480469 579.910156 624.847656 586.441406 C 629.210938 592.972656 633.246094 599.699219 636.953125 606.628906 C 640.65625 613.554688 644.011719 620.648438 647.019531 627.902344 C 650.027344 635.160156 652.671875 642.546875 654.953125 650.066406 C 657.234375 657.582031 659.140625 665.191406 660.671875 672.894531 C 662.207031 680.601562 663.359375 688.359375 664.128906 696.175781 C 664.898438 703.996094 665.285156 711.832031 665.285156 719.683594 C 665.285156 727.539062 664.898438 735.375 664.128906 743.195312 C 663.359375 751.011719 662.207031 758.769531 660.671875 766.476562 C 659.140625 774.179688 657.234375 781.789062 654.953125 789.304688 C 652.671875 796.824219 650.027344 804.210938 647.019531 811.464844 C 644.011719 818.722656 640.65625 825.816406 636.953125 832.742188 C 633.246094 839.671875 629.210938 846.398438 624.847656 852.929688 C 620.480469 859.460938 615.804688 865.761719 610.820312 871.835938 C 605.832031 877.90625 600.5625 883.71875 595.007812 889.273438 C 589.449219 894.828125 583.632812 900.097656 577.558594 905.082031 C 571.484375 910.0625 565.179688 914.738281 558.644531 919.101562 C 552.113281 923.464844 545.378906 927.5 538.449219 931.203125 C 531.519531 934.90625 524.421875 938.257812 517.164062 941.265625 C 509.902344 944.269531 502.511719 946.914062 494.992188 949.195312 C 487.472656 951.472656 479.859375 953.378906 472.148438 954.914062 C 464.441406 956.445312 456.679688 957.597656 448.859375 958.367188 C 441.039062 959.136719 433.199219 959.519531 425.339844 959.519531 C 417.480469 959.519531 409.640625 959.136719 401.820312 958.367188 C 394 957.597656 386.234375 956.445312 378.527344 954.914062 C 370.820312 953.378906 363.207031 951.472656 355.6875 949.195312 C 348.167969 946.914062 340.777344 944.269531 333.515625 941.265625 C 326.257812 938.257812 319.160156 934.90625 312.230469 931.203125 C 305.300781 927.5 298.566406 923.464844 292.035156 919.101562 C 285.5 914.738281 279.195312 910.0625 273.121094 905.082031 C 267.046875 900.097656 261.230469 894.828125 255.671875 889.273438 C 250.117188 883.71875 244.84375 877.90625 239.859375 871.835938 C 234.875 865.761719 230.199219 859.460938 225.832031 852.929688 C 221.46875 846.398438 217.433594 839.671875 213.726562 832.742188 C 210.023438 825.816406 206.667969 818.722656 203.660156 811.464844 C 200.652344 804.210938 198.007812 796.824219 195.726562 789.304688 C 193.445312 781.789062 191.539062 774.179688 190.003906 766.476562 C 188.472656 758.769531 187.320312 751.011719 186.550781 743.195312 C 185.78125 735.375 185.394531 727.539062 185.394531 719.683594 Z M 185.394531 719.683594 " clip-rule="nonzero"/></clipPath><clipPath id="d21adb8822"><path d="M 389 479.695312 L 456 479.695312 L 456 959.652344 L 389 959.652344 Z M 389 479.695312 " clip-rule="nonzero"/></clipPath><clipPath id="136c7c9426"><path d="M 185.394531 719.683594 C 185.394531 711.832031 185.78125 703.996094 186.550781 696.175781 C 187.320312 688.359375 188.472656 680.601562 190.003906 672.894531 C 191.539062 665.191406 193.445312 657.582031 195.726562 650.066406 C 198.007812 642.546875 200.652344 635.160156 203.660156 627.902344 C 206.667969 620.648438 210.023438 613.554688 213.726562 606.628906 C 217.433594 599.699219 221.46875 592.972656 225.832031 586.441406 C 230.199219 579.910156 234.875 573.605469 239.859375 567.535156 C 244.84375 561.464844 250.117188 555.648438 255.671875 550.097656 C 261.230469 544.542969 267.046875 539.273438 273.121094 534.289062 C 279.195312 529.308594 285.5 524.632812 292.035156 520.269531 C 298.566406 515.90625 305.300781 511.871094 312.230469 508.167969 C 319.160156 504.464844 326.257812 501.113281 333.515625 498.105469 C 340.777344 495.101562 348.167969 492.457031 355.6875 490.175781 C 363.207031 487.898438 370.820312 485.992188 378.527344 484.457031 C 386.234375 482.925781 394 481.773438 401.820312 481.003906 C 409.640625 480.234375 417.480469 479.851562 425.339844 479.851562 C 433.199219 479.851562 441.039062 480.234375 448.859375 481.003906 C 456.679688 481.773438 464.441406 482.925781 472.148438 484.457031 C 479.859375 485.992188 487.472656 487.898438 494.992188 490.175781 C 502.511719 492.457031 509.902344 495.101562 517.164062 498.105469 C 524.421875 501.113281 531.519531 504.464844 538.449219 508.167969 C 545.378906 511.871094 552.113281 515.90625 558.644531 520.269531 C 565.179688 524.632812 571.484375 529.308594 577.558594 534.289062 C 583.632812 539.273438 589.449219 544.542969 595.007812 550.097656 C 600.5625 555.648438 605.832031 561.464844 610.820312 567.535156 C 615.804688 573.605469 620.480469 579.910156 624.847656 586.441406 C 629.210938 592.972656 633.246094 599.699219 636.953125 606.628906 C 640.65625 613.554688 644.011719 620.648438 647.019531 627.902344 C 650.027344 635.160156 652.671875 642.546875 654.953125 650.066406 C 657.234375 657.582031 659.140625 665.191406 660.671875 672.894531 C 662.207031 680.601562 663.359375 688.359375 664.128906 696.175781 C 664.898438 703.996094 665.285156 711.832031 665.285156 719.683594 C 665.285156 727.539062 664.898438 735.375 664.128906 743.195312 C 663.359375 751.011719 662.207031 758.769531 660.671875 766.476562 C 659.140625 774.179688 657.234375 781.789062 654.953125 789.304688 C 652.671875 796.824219 650.027344 804.210938 647.019531 811.464844 C 644.011719 818.722656 640.65625 825.816406 636.953125 832.742188 C 633.246094 839.671875 629.210938 846.398438 624.847656 852.929688 C 620.480469 859.460938 615.804688 865.761719 610.820312 871.835938 C 605.832031 877.90625 600.5625 883.71875 595.007812 889.273438 C 589.449219 894.828125 583.632812 900.097656 577.558594 905.082031 C 571.484375 910.0625 565.179688 914.738281 558.644531 919.101562 C 552.113281 923.464844 545.378906 927.5 538.449219 931.203125 C 531.519531 934.90625 524.421875 938.257812 517.164062 941.265625 C 509.902344 944.269531 502.511719 946.914062 494.992188 949.195312 C 487.472656 951.472656 479.859375 953.378906 472.148438 954.914062 C 464.441406 956.445312 456.679688 957.597656 448.859375 958.367188 C 441.039062 959.136719 433.199219 959.519531 425.339844 959.519531 C 417.480469 959.519531 409.640625 959.136719 401.820312 958.367188 C 394 957.597656 386.234375 956.445312 378.527344 954.914062 C 370.820312 953.378906 363.207031 951.472656 355.6875 949.195312 C 348.167969 946.914062 340.777344 944.269531 333.515625 941.265625 C 326.257812 938.257812 319.160156 934.90625 312.230469 931.203125 C 305.300781 927.5 298.566406 923.464844 292.035156 919.101562 C 285.5 914.738281 279.195312 910.0625 273.121094 905.082031 C 267.046875 900.097656 261.230469 894.828125 255.671875 889.273438 C 250.117188 883.71875 244.84375 877.90625 239.859375 871.835938 C 234.875 865.761719 230.199219 859.460938 225.832031 852.929688 C 221.46875 846.398438 217.433594 839.671875 213.726562 832.742188 C 210.023438 825.816406 206.667969 818.722656 203.660156 811.464844 C 200.652344 804.210938 198.007812 796.824219 195.726562 789.304688 C 193.445312 781.789062 191.539062 774.179688 190.003906 766.476562 C 188.472656 758.769531 187.320312 751.011719 186.550781 743.195312 C 185.78125 735.375 185.394531 727.539062 185.394531 719.683594 Z M 185.394531 719.683594 " clip-rule="nonzero"/></clipPath><clipPath id="40507d3a08"><path d="M 185 675 L 666 675 L 666 754 L 185 754 Z M 185 675 " clip-rule="nonzero"/></clipPath><clipPath id="dd5901b048"><path d="M 185.394531 719.683594 C 185.394531 711.832031 185.78125 703.996094 186.550781 696.175781 C 187.320312 688.359375 188.472656 680.601562 190.003906 672.894531 C 191.539062 665.191406 193.445312 657.582031 195.726562 650.066406 C 198.007812 642.546875 200.652344 635.160156 203.660156 627.902344 C 206.667969 620.648438 210.023438 613.554688 213.726562 606.628906 C 217.433594 599.699219 221.46875 592.972656 225.832031 586.441406 C 230.199219 579.910156 234.875 573.605469 239.859375 567.535156 C 244.84375 561.464844 250.117188 555.648438 255.671875 550.097656 C 261.230469 544.542969 267.046875 539.273438 273.121094 534.289062 C 279.195312 529.308594 285.5 524.632812 292.035156 520.269531 C 298.566406 515.90625 305.300781 511.871094 312.230469 508.167969 C 319.160156 504.464844 326.257812 501.113281 333.515625 498.105469 C 340.777344 495.101562 348.167969 492.457031 355.6875 490.175781 C 363.207031 487.898438 370.820312 485.992188 378.527344 484.457031 C 386.234375 482.925781 394 481.773438 401.820312 481.003906 C 409.640625 480.234375 417.480469 479.851562 425.339844 479.851562 C 433.199219 479.851562 441.039062 480.234375 448.859375 481.003906 C 456.679688 481.773438 464.441406 482.925781 472.148438 484.457031 C 479.859375 485.992188 487.472656 487.898438 494.992188 490.175781 C 502.511719 492.457031 509.902344 495.101562 517.164062 498.105469 C 524.421875 501.113281 531.519531 504.464844 538.449219 508.167969 C 545.378906 511.871094 552.113281 515.90625 558.644531 520.269531 C 565.179688 524.632812 571.484375 529.308594 577.558594 534.289062 C 583.632812 539.273438 589.449219 544.542969 595.007812 550.097656 C 600.5625 555.648438 605.832031 561.464844 610.820312 567.535156 C 615.804688 573.605469 620.480469 579.910156 624.847656 586.441406 C 629.210938 592.972656 633.246094 599.699219 636.953125 606.628906 C 640.65625 613.554688 644.011719 620.648438 647.019531 627.902344 C 650.027344 635.160156 652.671875 642.546875 654.953125 650.066406 C 657.234375 657.582031 659.140625 665.191406 660.671875 672.894531 C 662.207031 680.601562 663.359375 688.359375 664.128906 696.175781 C 664.898438 703.996094 665.285156 711.832031 665.285156 719.683594 C 665.285156 727.539062 664.898438 735.375 664.128906 743.195312 C 663.359375 751.011719 662.207031 758.769531 660.671875 766.476562 C 659.140625 774.179688 657.234375 781.789062 654.953125 789.304688 C 652.671875 796.824219 650.027344 804.210938 647.019531 811.464844 C 644.011719 818.722656 640.65625 825.816406 636.953125 832.742188 C 633.246094 839.671875 629.210938 846.398438 624.847656 852.929688 C 620.480469 859.460938 615.804688 865.761719 610.820312 871.835938 C 605.832031 877.90625 600.5625 883.71875 595.007812 889.273438 C 589.449219 894.828125 583.632812 900.097656 577.558594 905.082031 C 571.484375 910.0625 565.179688 914.738281 558.644531 919.101562 C 552.113281 923.464844 545.378906 927.5 538.449219 931.203125 C 531.519531 934.90625 524.421875 938.257812 517.164062 941.265625 C 509.902344 944.269531 502.511719 946.914062 494.992188 949.195312 C 487.472656 951.472656 479.859375 953.378906 472.148438 954.914062 C 464.441406 956.445312 456.679688 957.597656 448.859375 958.367188 C 441.039062 959.136719 433.199219 959.519531 425.339844 959.519531 C 417.480469 959.519531 409.640625 959.136719 401.820312 958.367188 C 394 957.597656 386.234375 956.445312 378.527344 954.914062 C 370.820312 953.378906 363.207031 951.472656 355.6875 949.195312 C 348.167969 946.914062 340.777344 944.269531 333.515625 941.265625 C 326.257812 938.257812 319.160156 934.90625 312.230469 931.203125 C 305.300781 927.5 298.566406 923.464844 292.035156 919.101562 C 285.5 914.738281 279.195312 910.0625 273.121094 905.082031 C 267.046875 900.097656 261.230469 894.828125 255.671875 889.273438 C 250.117188 883.71875 244.84375 877.90625 239.859375 871.835938 C 234.875 865.761719 230.199219 859.460938 225.832031 852.929688 C 221.46875 846.398438 217.433594 839.671875 213.726562 832.742188 C 210.023438 825.816406 206.667969 818.722656 203.660156 811.464844 C 200.652344 804.210938 198.007812 796.824219 195.726562 789.304688 C 193.445312 781.789062 191.539062 774.179688 190.003906 766.476562 C 188.472656 758.769531 187.320312 751.011719 186.550781 743.195312 C 185.78125 735.375 185.394531 727.539062 185.394531 719.683594 Z M 185.394531 719.683594 " clip-rule="nonzero"/></clipPath><clipPath id="c777e30bf6"><path d="M 64.292969 660 L 786.375 660 L 786.375 775 L 64.292969 775 Z M 64.292969 660 " clip-rule="nonzero"/></clipPath></defs><rect x="-81" width="972" fill="#ffffff" y="-143.999994" height="1727.999922" fill-opacity="1"/><g clip-path="url(#e46d1d66c8)"><path fill="#fffefe" d="M 23.816406 788.980469 L 280.683594 788.980469 L 280.683594 959.746094 L 23.816406 959.746094 Z M 23.816406 788.980469 " fill-opacity="1" fill-rule="nonzero"/></g><g clip-path="url(#e9c18f8e60)"><g clip-path="url(#8bdfd4d999)"><path fill="#005fce" d="M 111.019531 432.980469 L 736.550781 432.980469 L 736.550781 987.523438 L 111.019531 987.523438 Z M 111.019531 432.980469 " fill-opacity="1" fill-rule="nonzero"/></g></g><g clip-path="url(#c64dd31db0)"><g clip-path="url(#76b95fcf30)"><path fill="#ffffff" d="M 736.550781 526.375 L 736.550781 574.925781 L 610.664062 651.15625 L 564.691406 678.992188 L 504.902344 715.195312 L 486.132812 726.566406 L 465.886719 738.816406 L 461.613281 741.410156 L 436.65625 756.519531 L 435.40625 757.277344 L 421.277344 765.839844 L 395.230469 781.601562 L 390.671875 784.363281 L 372.074219 795.625 L 184.066406 909.464844 L 111.019531 909.464844 L 111.019531 851.898438 L 222.554688 784.363281 L 268.542969 756.519531 L 337.972656 714.472656 L 352.113281 705.914062 L 372.074219 693.828125 L 382.59375 687.460938 L 395.230469 679.804688 L 396.570312 678.992188 L 421.601562 663.839844 L 442.546875 651.15625 L 461.613281 639.605469 L 486.132812 624.761719 L 648.613281 526.375 Z M 736.550781 526.375 " fill-opacity="1" fill-rule="nonzero"/><path fill="#ffffff" d="M 736.550781 858.035156 L 736.550781 909.464844 L 654.214844 909.464844 L 486.132812 805.828125 L 461.613281 790.707031 L 451.328125 784.363281 L 421.277344 765.839844 L 406.167969 756.519531 L 395.230469 749.78125 L 384.117188 742.921875 L 372.074219 735.496094 L 353.75 724.203125 L 337.972656 714.472656 L 280.433594 678.992188 L 235.285156 651.15625 L 111.019531 574.535156 L 111.019531 526.375 L 198.664062 526.375 L 372.074219 633.296875 L 395.230469 647.582031 L 401.039062 651.15625 L 421.601562 663.839844 L 437.378906 673.566406 L 446.191406 678.992188 L 461.613281 688.503906 L 467.738281 692.285156 L 486.132812 703.625 L 504.902344 715.195312 L 571.917969 756.519531 L 617.078125 784.363281 Z M 736.550781 858.035156 " fill-opacity="1" fill-rule="nonzero"/></g></g><g clip-path="url(#f2d98d8d1f)"><g clip-path="url(#26360be238)"><path fill="#d61e1e" d="M 545.066406 773.597656 L 741.871094 894.945312 L 741.871094 898.699219 L 687.546875 898.699219 L 491.453125 777.785156 L 484.660156 773.597656 L 466.925781 762.667969 L 440.726562 746.511719 L 439.492188 745.753906 L 403.566406 723.601562 L 400.550781 721.738281 L 377.386719 707.457031 L 373.207031 704.875 L 357.425781 695.148438 L 313.765625 668.226562 L 268.617188 640.390625 L 116.339844 546.496094 L 116.339844 515.609375 L 126.652344 515.609375 L 329.023438 640.390625 L 374.171875 668.226562 L 377.386719 670.214844 L 387.90625 676.691406 L 400.550781 684.488281 L 403.679688 686.417969 L 434.039062 705.140625 L 466.925781 725.417969 L 471.203125 728.050781 L 491.453125 740.539062 L 499.898438 745.753906 Z M 545.066406 773.597656 " fill-opacity="1" fill-rule="nonzero"/></g></g><g clip-path="url(#206cb96ea6)"><g clip-path="url(#23a614a95b)"><path fill="#d61e1e" d="M 691.980469 531.542969 L 748.070312 531.542969 L 748.070312 534.683594 L 547.183594 656.324219 L 501.207031 684.164062 L 497.65625 686.316406 L 479.257812 697.457031 L 473.136719 701.164062 L 440.246094 721.074219 L 409.773438 739.535156 L 406.75 741.359375 L 395.632812 748.09375 L 383.59375 755.382812 L 373.183594 761.6875 L 327.195312 789.53125 L 122.539062 913.453125 L 122.539062 876.347656 L 265.921875 789.53125 L 311.898438 761.6875 L 365.269531 729.367188 L 379.40625 720.808594 L 383.59375 718.273438 L 406.75 704.257812 L 409.878906 702.355469 L 439.933594 684.164062 L 448.898438 678.734375 L 473.136719 664.058594 L 485.902344 656.324219 L 497.65625 649.214844 Z M 691.980469 531.542969 " fill-opacity="1" fill-rule="nonzero"/></g></g><g clip-path="url(#1b069544e3)"><g clip-path="url(#790a04feb0)"><path fill="#ffffff" d="M 365.867188 418.988281 L 479.925781 418.988281 L 479.925781 1026.003906 L 365.867188 1026.003906 Z M 365.867188 418.988281 " fill-opacity="1" fill-rule="nonzero"/></g></g><g clip-path="url(#9cc650e34a)"><g clip-path="url(#c00830aec1)"><path fill="#ffffff" d="M 111.019531 648.054688 L 736.550781 648.054688 L 736.550781 781.261719 L 111.019531 781.261719 Z M 111.019531 648.054688 " fill-opacity="1" fill-rule="nonzero"/></g></g><g clip-path="url(#d21adb8822)"><g clip-path="url(#136c7c9426)"><path fill="#d61e1e" d="M 389.03125 418.988281 L 455.414062 418.988281 L 455.414062 1026.003906 L 389.03125 1026.003906 Z M 389.03125 418.988281 " fill-opacity="1" fill-rule="nonzero"/></g></g><g clip-path="url(#40507d3a08)"><g clip-path="url(#dd5901b048)"><path fill="#d61e1e" d="M 111.019531 675.894531 L 736.550781 675.894531 L 736.550781 753.417969 L 111.019531 753.417969 Z M 111.019531 675.894531 " fill-opacity="1" fill-rule="nonzero"/></g></g><g clip-path="url(#c777e30bf6)"><path fill="#d61e1e" d="M 786.382812 774.753906 L 64.292969 774.753906 L 98.398438 717.6875 L 64.292969 660.628906 L 786.382812 660.628906 L 751.171875 719.011719 Z M 786.382812 774.753906 " fill-opacity="1" fill-rule="nonzero"/></g><path fill="#ffffff" d="M 127.226562 744.160156 L 127.226562 691.925781 L 137.640625 691.925781 L 150.007812 728.910156 C 151.152344 732.351562 151.976562 734.929688 152.5 736.640625 C 153.09375 734.738281 154.019531 731.949219 155.28125 728.269531 L 167.792969 691.925781 L 177.09375 691.925781 L 177.09375 744.160156 L 170.429688 744.160156 L 170.429688 700.441406 L 155.246094 744.160156 L 149.007812 744.160156 L 133.890625 699.695312 L 133.890625 744.160156 Z M 127.226562 744.160156 " fill-opacity="1" fill-rule="nonzero"/><path fill="#ffffff" d="M 182.515625 744.160156 L 202.582031 691.925781 L 210.03125 691.925781 L 231.421875 744.160156 L 223.542969 744.160156 L 217.449219 728.34375 L 195.597656 728.34375 L 189.859375 744.160156 Z M 197.589844 722.710938 L 215.304688 722.710938 L 209.851562 708.242188 C 208.1875 703.851562 206.953125 700.238281 206.144531 697.410156 C 205.480469 700.757812 204.539062 704.085938 203.332031 707.390625 Z M 197.589844 722.710938 " fill-opacity="1" fill-rule="nonzero"/><path fill="#ffffff" d="M 236.945312 744.160156 L 236.945312 691.925781 L 254.945312 691.925781 C 259.011719 691.925781 262.109375 692.171875 264.25 692.675781 C 267.242188 693.367188 269.796875 694.609375 271.914062 696.414062 C 274.671875 698.742188 276.730469 701.71875 278.097656 705.339844 C 279.464844 708.964844 280.148438 713.105469 280.148438 717.757812 C 280.148438 721.722656 279.6875 725.238281 278.757812 728.304688 C 277.828125 731.367188 276.640625 733.90625 275.195312 735.914062 C 273.742188 737.921875 272.15625 739.503906 270.433594 740.648438 C 268.710938 741.804688 266.628906 742.675781 264.191406 743.269531 C 261.757812 743.863281 258.960938 744.160156 255.796875 744.160156 L 236.9375 744.160156 Z M 243.859375 737.996094 L 255.019531 737.996094 C 258.464844 737.996094 261.171875 737.675781 263.128906 737.03125 C 265.085938 736.390625 266.652344 735.492188 267.816406 734.328125 C 269.453125 732.691406 270.730469 730.484375 271.648438 727.71875 C 272.566406 724.949219 273.023438 721.597656 273.023438 717.65625 C 273.023438 712.191406 272.128906 707.992188 270.332031 705.058594 C 268.539062 702.128906 266.359375 700.160156 263.792969 699.164062 C 261.941406 698.449219 258.960938 698.097656 254.84375 698.097656 L 243.867188 698.097656 L 243.867188 738 Z M 243.859375 737.996094 " fill-opacity="1" fill-rule="nonzero"/><path fill="#ffffff" d="M 289.808594 744.160156 L 289.808594 691.925781 L 327.59375 691.925781 L 327.59375 698.089844 L 296.71875 698.089844 L 296.71875 714.089844 L 325.628906 714.089844 L 325.628906 720.21875 L 296.71875 720.21875 L 296.71875 738 L 328.804688 738 L 328.804688 744.164062 L 289.804688 744.164062 Z M 289.808594 744.160156 " fill-opacity="1" fill-rule="nonzero"/><path fill="#ffffff" d="M 359.824219 691.925781 L 366.738281 691.925781 L 366.738281 744.160156 L 359.824219 744.160156 Z M 359.824219 691.925781 " fill-opacity="1" fill-rule="nonzero"/><path fill="#ffffff" d="M 378.855469 744.160156 L 378.855469 691.925781 L 385.953125 691.925781 L 413.398438 732.9375 L 413.398438 691.925781 L 420.027344 691.925781 L 420.027344 744.160156 L 412.929688 744.160156 L 385.484375 703.113281 L 385.484375 744.160156 Z M 378.855469 744.160156 " fill-opacity="1" fill-rule="nonzero"/><path fill="#ffffff" d="M 451.648438 744.160156 L 451.648438 691.925781 L 471.253906 691.925781 C 475.246094 691.925781 478.449219 692.453125 480.863281 693.511719 C 483.277344 694.570312 485.160156 696.195312 486.527344 698.394531 C 487.894531 700.59375 488.578125 702.890625 488.578125 705.289062 C 488.578125 707.523438 487.96875 709.628906 486.757812 711.597656 C 485.550781 713.570312 483.714844 715.164062 481.273438 716.371094 C 484.433594 717.300781 486.859375 718.882812 488.558594 721.109375 C 490.261719 723.339844 491.109375 725.980469 491.109375 729.015625 C 491.109375 731.464844 490.59375 733.738281 489.554688 735.839844 C 488.519531 737.945312 487.242188 739.566406 485.722656 740.707031 C 484.203125 741.847656 482.296875 742.707031 480 743.289062 C 477.703125 743.875 474.894531 744.160156 471.570312 744.160156 L 451.644531 744.160156 Z M 458.558594 713.875 L 469.859375 713.875 C 472.925781 713.875 475.121094 713.671875 476.457031 713.265625 C 478.214844 712.746094 479.539062 711.878906 480.429688 710.667969 C 481.316406 709.460938 481.761719 707.933594 481.761719 706.105469 C 481.761719 704.375 481.34375 702.84375 480.511719 701.527344 C 479.679688 700.210938 478.492188 699.304688 476.949219 698.820312 C 475.402344 698.332031 472.757812 698.089844 469 698.089844 L 458.554688 698.089844 L 458.554688 713.875 Z M 458.558594 737.996094 L 471.570312 737.996094 C 473.804688 737.996094 475.375 737.910156 476.273438 737.746094 C 477.867188 737.460938 479.195312 736.988281 480.269531 736.324219 C 481.339844 735.660156 482.21875 734.691406 482.910156 733.421875 C 483.597656 732.152344 483.945312 730.683594 483.945312 729.023438 C 483.945312 727.078125 483.445312 725.382812 482.449219 723.945312 C 481.453125 722.503906 480.066406 721.496094 478.296875 720.917969 C 476.523438 720.332031 473.972656 720.046875 470.648438 720.046875 L 458.566406 720.046875 L 458.566406 738.007812 Z M 458.558594 737.996094 " fill-opacity="1" fill-rule="nonzero"/><path fill="#ffffff" d="M 500.734375 744.160156 L 500.734375 691.925781 L 523.902344 691.925781 C 528.5625 691.925781 532.101562 692.398438 534.527344 693.332031 C 536.953125 694.269531 538.886719 695.925781 540.335938 698.300781 C 541.785156 700.671875 542.507812 703.300781 542.507812 706.175781 C 542.507812 709.882812 541.308594 713.003906 538.90625 715.546875 C 536.5 718.089844 532.800781 719.703125 527.785156 720.394531 C 529.613281 721.273438 531.003906 722.136719 531.953125 722.992188 C 533.976562 724.84375 535.886719 727.160156 537.695312 729.941406 L 546.785156 744.15625 L 538.089844 744.15625 L 531.171875 733.285156 C 529.152344 730.152344 527.488281 727.75 526.179688 726.09375 C 524.875 724.433594 523.703125 723.261719 522.667969 722.597656 C 521.632812 721.933594 520.582031 721.46875 519.511719 721.210938 C 518.730469 721.046875 517.445312 720.960938 515.664062 720.960938 L 507.644531 720.960938 L 507.644531 744.160156 L 500.726562 744.160156 Z M 507.648438 714.976562 L 522.511719 714.976562 C 525.675781 714.976562 528.144531 714.652344 529.929688 714 C 531.710938 713.347656 533.0625 712.300781 533.992188 710.867188 C 534.921875 709.429688 535.382812 707.867188 535.382812 706.179688 C 535.382812 703.710938 534.488281 701.679688 532.691406 700.085938 C 530.898438 698.496094 528.066406 697.703125 524.1875 697.703125 L 507.648438 697.703125 L 507.648438 714.984375 Z M 507.648438 714.976562 " fill-opacity="1" fill-rule="nonzero"/><path fill="#ffffff" d="M 554.519531 691.925781 L 561.4375 691.925781 L 561.4375 744.160156 L 554.519531 744.160156 Z M 554.519531 691.925781 " fill-opacity="1" fill-rule="nonzero"/><path fill="#ffffff" d="M 586.925781 744.160156 L 586.925781 698.089844 L 569.710938 698.089844 L 569.710938 691.925781 L 611.128906 691.925781 L 611.128906 698.089844 L 593.839844 698.089844 L 593.839844 744.160156 Z M 586.925781 744.160156 " fill-opacity="1" fill-rule="nonzero"/><path fill="#ffffff" d="M 607.066406 744.160156 L 627.132812 691.925781 L 634.585938 691.925781 L 655.976562 744.160156 L 648.097656 744.160156 L 642.003906 728.34375 L 620.152344 728.34375 L 614.410156 744.160156 Z M 622.144531 722.710938 L 639.859375 722.710938 L 634.40625 708.242188 C 632.738281 703.851562 631.507812 700.238281 630.695312 697.410156 C 630.03125 700.757812 629.09375 704.085938 627.882812 707.390625 Z M 622.144531 722.710938 " fill-opacity="1" fill-rule="nonzero"/><path fill="#ffffff" d="M 662.671875 691.925781 L 669.589844 691.925781 L 669.589844 744.160156 L 662.671875 744.160156 Z M 662.671875 691.925781 " fill-opacity="1" fill-rule="nonzero"/><path fill="#ffffff" d="M 681.710938 744.160156 L 681.710938 691.925781 L 688.808594 691.925781 L 716.253906 732.9375 L 716.253906 691.925781 L 722.882812 691.925781 L 722.882812 744.160156 L 715.785156 744.160156 L 688.339844 703.113281 L 688.339844 744.160156 Z M 681.710938 744.160156 " fill-opacity="1" fill-rule="nonzero"/></svg>